<svg width="88" height="88" viewBox="0 0 88 88" fill="none" xmlns="http://www.w3.org/2000/svg">
<path d="M0 44C0 28.5986 0 20.8979 2.99732 15.0153C5.63384 9.84083 9.8408 5.63387 15.0153 2.99735C20.8978 3.05176e-05 28.5986 3.05176e-05 44 3.05176e-05C59.4014 3.05176e-05 67.1022 3.05176e-05 72.9847 2.99735C78.1592 5.63387 82.3662 9.84083 85.0027 15.0153C88 20.8979 88 28.5986 88 44C88 59.4015 88 67.1022 85.0027 72.9848C82.3662 78.1592 78.1592 82.3662 72.9847 85.0027C67.1022 88 59.4014 88 44 88C28.5986 88 20.8978 88 15.0153 85.0027C9.8408 82.3662 5.63384 78.1592 2.99732 72.9848C0 67.1022 0 59.4015 0 44Z" fill="#14AFEB"/>
<path d="M45.8337 28.4239C46.3331 33.5275 46.5826 36.0794 47.9203 37.9507C48.4934 38.7525 49.2004 39.4499 50.01 40.0121C51.8993 41.324 54.4544 41.5389 59.5641 41.9686L61.7246 42.15V45.85L59.5641 46.0315C54.4544 46.4611 51.8993 46.6761 50.01 47.988C49.2004 48.5501 48.4934 49.2475 47.9203 50.0493C46.5826 51.9206 46.3331 54.4726 45.8337 59.5762H42.1663C41.6669 54.4726 41.4174 51.9206 40.0797 50.0493C39.5066 49.2475 38.7996 48.5501 37.99 47.988C36.1007 46.6761 33.5456 46.4611 28.4359 46.0315L26.2754 45.85V42.15L28.4359 41.9686C33.5456 41.5389 36.1007 41.324 37.99 40.0121C38.7996 39.4499 39.5066 38.7525 40.0797 37.9507C41.4174 36.0794 41.6669 33.5275 42.1663 28.4239H45.8337Z" fill="white"/>
<path fill-rule="evenodd" clip-rule="evenodd" d="M44 9.62503C72.3078 9.62503 78.375 15.6922 78.375 44C78.375 72.3078 72.3078 78.375 44 78.375C15.6922 78.375 9.625 72.3078 9.625 44C9.625 15.6922 15.6922 9.62503 44 9.62503ZM66.4663 21.5049C58.141 13.1798 41.3272 16.4956 28.9116 28.9111C16.4959 41.3269 13.1801 58.141 21.5054 66.4663C29.8307 74.7915 46.6444 71.4757 59.06 59.0601C71.4757 46.6444 74.7916 29.8302 66.4663 21.5049Z" fill="white"/>
</svg>
